<svg width="1440" height="796" viewBox="0 0 1440 796" fill="none" xmlns="http://www.w3.org/2000/svg">
<path d="M-112 3.37447C231.167 -11.1255 934.3 33.9745 1001.5 330.374C1085.5 700.874 1230.5 836.374 1346.5 783.874C1439.3 741.874 1654.5 525.708 1750.5 422.874" stroke="#31B604"/>
<path d="M-37 577.558C168.162 601.974 634.803 615.423 860.067 473.892C1085.33 332.361 1477.22 333.318 1645 351.488" stroke="white"/>
<path d="M-109.917 12.7065C226.567 -1.05156 914.834 43.0586 984.903 330.912C1071.3 690.807 1217.08 821.654 1332.99 768.646C1429.47 723.882 1649.58 513.746 1747.57 414.274" stroke="#37B80B"/>
<path d="M-107.833 22.0407C221.967 9.0245 895.369 52.1449 968.305 331.452C1057.11 680.742 1203.66 806.935 1319.48 753.42C1419.63 705.891 1644.65 501.787 1744.64 405.676" stroke="#3CBA12"/>
<path d="M-105.75 31.3772C217.368 19.1029 875.903 61.2334 951.708 331.994C1042.91 670.679 1190.24 792.219 1305.96 738.197C1409.8 687.902 1639.73 489.829 1741.71 397.08" stroke="#42BC19"/>
<path d="M-103.667 40.7162C212.768 29.1838 856.437 70.3245 935.111 332.538C1028.72 660.618 1176.83 777.505 1292.45 722.976C1399.97 669.917 1634.8 477.875 1738.78 388.486" stroke="#48BE20"/>
<path d="M-101.583 50.0581C208.169 39.2676 836.971 79.4184 918.513 333.085C1014.52 650.561 1163.41 762.794 1278.94 707.757C1390.14 651.934 1629.88 465.923 1735.85 379.896" stroke="#4EC027"/>
<path d="M-99.5 59.4031C203.569 49.3545 817.505 88.5155 901.916 333.636C1000.33 640.506 1149.99 748.086 1265.43 692.542C1380.3 633.954 1624.95 453.974 1732.92 371.308" stroke="#53C22E"/>
<path d="M-97.4167 68.7517C198.969 59.4449 798.04 97.6161 885.319 334.19C986.131 630.456 1136.57 733.382 1251.92 677.331C1370.47 615.977 1620.03 442.029 1729.99 362.724" stroke="#59C435"/>
<path d="M-95.3333 78.1043C194.37 69.5394 778.574 106.721 868.721 334.748C971.935 620.409 1123.15 718.682 1238.4 662.123C1360.64 598.005 1615.1 430.088 1727.06 354.144" stroke="#5FC63C"/>
<path d="M-93.25 87.4613C189.77 79.6383 759.108 115.83 852.124 335.311C957.74 610.366 1109.73 703.986 1224.89 646.92C1350.81 580.037 1610.18 418.151 1724.12 345.569" stroke="#65C843"/>
<path d="M-91.1667 96.8234C185.171 89.7423 739.642 124.944 835.526 335.878C943.544 600.329 1096.32 689.295 1211.38 631.722C1340.97 562.074 1605.25 406.22 1721.19 336.998" stroke="#6ACA4A"/>
<path d="M-89.0833 106.191C180.571 99.8521 720.176 134.064 818.929 336.452C929.349 590.297 1082.9 674.611 1197.87 616.53C1331.14 544.117 1600.33 394.294 1718.26 328.434" stroke="#70CC51"/>
<path d="M-87 115.566C175.972 109.969 700.711 143.191 802.332 337.032C915.153 580.273 1069.48 659.932 1184.36 601.344C1321.31 526.167 1595.41 382.375 1715.33 319.876" stroke="#76CE58"/>
<path d="M-84.9167 124.948C171.372 120.093 681.245 152.325 785.734 337.62C900.957 570.256 1056.06 645.262 1170.84 586.166C1311.48 508.224 1590.48 370.464 1712.4 311.326" stroke="#7BD05F"/>
<path d="M-82.8333 134.34C166.772 130.226 661.779 161.469 769.137 338.216C886.762 560.248 1042.64 630.601 1157.33 570.997C1301.65 490.291 1585.56 358.561 1709.47 302.785" stroke="#81D266"/>
<path d="M-80.75 143.742C162.173 140.37 642.313 170.623 752.54 338.824C872.566 550.25 1029.22 615.95 1143.82 555.839C1291.81 472.368 1580.63 346.67 1706.54 294.254" stroke="#87D46D"/>
<path d="M-78.6667 153.156C157.573 150.527 622.848 179.789 735.942 339.444C858.371 540.265 1015.8 601.312 1130.31 540.694C1281.98 454.458 1575.71 334.79 1703.61 285.736" stroke="#8DD674"/>
<path d="M-76.5833 162.586C152.974 160.698 603.382 188.971 719.345 340.079C844.175 530.295 1002.39 586.688 1116.8 525.563C1272.15 436.562 1570.78 322.926 1700.68 277.234" stroke="#92D87B"/>
<path d="M-74.5 172.034C148.374 170.888 583.916 198.171 702.748 340.732C829.979 520.344 988.967 572.084 1103.28 510.451C1262.32 418.686 1565.86 311.081 1697.75 268.749" stroke="#98DB82"/>
<path d="M-72.4167 181.505C143.774 181.1 564.45 207.394 686.15 341.409C815.784 510.415 975.549 557.501 1089.77 495.361C1252.48 400.831 1560.93 299.258 1694.82 260.287" stroke="#9EDD88"/>
<path d="M-70.3333 191C139.175 191.338 544.984 216.641 669.553 342.109C801.588 500.511 962.131 542.944 1076.26 480.297C1242.65 383.002 1556.01 287.459 1691.89 251.85" stroke="#A3DF8F"/>
<path d="M-68.25 200.5C134.575 201.58 525.519 225.893 652.956 342.815C787.393 490.612 948.712 528.391 1062.75 465.236C1232.82 365.177 1551.08 275.666 1688.96 243.418" stroke="#A9E196"/>
<path d="M-66.1667 210C129.976 211.822 506.053 235.145 636.358 343.52C773.197 480.712 935.294 513.839 1049.24 450.176C1222.99 347.352 1546.16 263.872 1686.03 234.985" stroke="#AFE39D"/>
<path d="M-64.0833 219.5C125.376 222.063 486.587 244.397 619.761 344.226C759.002 470.813 921.875 499.286 1035.72 435.116C1213.15 329.527 1541.23 252.078 1683.1 226.553" stroke="#B5E5A4"/>
<path d="M-62 239.88C120.776 243.185 467.121 264.529 603.164 355.811C744.806 471.793 908.457 495.613 1022.21 430.936C1203.32 322.582 1536.31 251.164 1680.17 229" stroke="#BAE7AB"/>
<path d="M-59.9167 267.312C116.177 271.36 447.656 291.714 586.566 374.449C730.61 479.826 895.038 498.993 1008.7 433.808C1193.49 322.69 1531.39 257.303 1677.24 238.5" stroke="#C0E9B2"/>
<path d="M-57.8333 294.745C111.577 299.534 428.19 318.898 569.969 393.087C716.415 487.859 881.62 502.372 995.187 436.681C1183.66 322.797 1526.46 263.442 1674.31 248" stroke="#C6EBB9"/>
<path d="M-55.75 322.177C106.978 327.708 408.724 346.083 553.372 411.725C702.219 495.892 868.201 505.752 981.675 439.553C1173.82 322.905 1521.54 269.581 1671.38 257.5" stroke="#CCEDC0"/>
<path d="M-53.6667 349.61C102.378 355.883 389.258 373.268 536.774 430.363C688.024 503.925 854.783 509.132 968.163 442.425C1163.99 323.012 1516.61 275.72 1668.44 267" stroke="#D1EFC7"/>
<path d="M-51.5833 377.042C97.7784 384.057 369.793 400.452 520.177 449.001C673.828 511.958 841.364 512.511 954.651 445.298C1154.16 323.12 1511.69 281.858 1665.51 276.5" stroke="#D7F1CE"/>
<path d="M-49.5 404.475C93.1788 412.231 350.327 427.637 503.58 467.639C659.632 519.991 827.946 515.891 941.139 448.17C1144.33 323.227 1506.76 287.997 1662.58 286" stroke="#DDF3D5"/>
<path d="M-47.4167 431.952C88.5792 440.451 330.861 454.866 486.982 486.322C645.437 528.069 814.527 519.316 927.627 451.087C1134.49 323.38 1501.84 294.181 1659.65 295.545" stroke="#E2F5DC"/>
<path d="M-45.3333 459.899C83.9796 469.139 311.395 482.565 470.385 505.474C631.241 536.617 801.109 523.21 914.115 454.474C1124.66 324.002 1496.91 300.834 1656.72 305.559" stroke="#E8F7E3"/>
<path d="M-43.25 488.448C79.38 498.43 291.929 510.866 453.788 525.228C617.046 545.766 787.69 527.705 900.603 458.462C1114.83 325.225 1491.99 308.089 1653.79 316.175" stroke="#EEF9EA"/>
<path d="M-41.1667 517.598C74.7804 528.322 272.464 539.768 437.19 545.584C602.85 555.516 774.272 532.802 887.091 463.052C1105 327.05 1487.06 315.945 1650.86 327.393" stroke="#F4FBF1"/>
<path d="M-39.0833 547.317C70.1808 558.783 252.998 569.239 420.593 566.509C588.655 565.837 760.853 538.47 873.579 468.211C1095.16 329.445 1482.14 324.371 1647.93 339.18" stroke="#F9FDF8"/>
</svg>
